<svg width="48" height="48" viewBox="0 0 48 48" fill="none" xmlns="http://www.w3.org/2000/svg">
<path opacity="0.2" d="M43.7186 0H4.28145C1.91687 0 0 1.91687 0 4.28145V43.7186C0 46.0831 1.91687 48 4.28145 48H43.7186C46.0831 48 48 46.0831 48 43.7186V4.28145C48 1.91687 46.0831 0 43.7186 0Z" fill="white"/>
<path fill-rule="evenodd" clip-rule="evenodd" d="M29.7609 14.5981C29.7609 15.6631 29.3728 17.325 28.1665 18.4979C27.7424 18.9104 27.375 19.158 27.0805 19.3426C26.5134 19.6991 26.1035 19.9474 26.3318 20.5433C26.5564 21.1287 27.2568 20.9472 27.9194 20.8015C28.1328 20.7521 32.293 19.7838 32.3453 19.7816C33.4627 19.5764 34.542 20.2639 34.8039 21.327C34.8051 21.3312 35.1378 22.6825 35.1409 22.6944C35.4044 23.7576 34.764 24.8472 33.673 25.1583C33.6262 25.1786 29.0803 26.2416 29.0724 26.2434C28.2093 26.4574 27.7041 26.8738 27.7041 27.6833C27.7041 28.0453 27.9194 28.4384 28.1848 28.7644C28.1848 28.7644 33.1236 34.7171 33.1492 34.763C33.8215 35.6545 33.6499 36.8982 32.7763 37.5871C32.7732 37.59 31.6639 38.465 31.653 38.4725C30.7811 39.1621 29.4942 39.0709 28.735 38.2478C28.6958 38.2157 25.6284 34.5495 25.3029 34.1605C24.9774 33.772 24.5682 33.1803 23.9996 33.1803C23.4325 33.1803 23.0234 33.772 22.6972 34.1605C22.3721 34.5495 19.3039 38.2157 19.2655 38.2478C18.5057 39.0709 17.2193 39.1621 16.3464 38.4725C16.337 38.465 15.2266 37.59 15.2235 37.5871C14.3507 36.8982 14.179 35.6545 14.8508 34.763C14.8758 34.7171 19.8153 28.7644 19.8153 28.7644C20.08 28.4384 20.296 28.0453 20.296 27.6833C20.296 26.8738 19.7916 26.4574 18.9272 26.2434C18.9194 26.2416 14.3738 25.1786 14.3272 25.1583C13.2366 24.8472 12.596 23.7576 12.8588 22.6944C12.8615 22.6825 13.1952 21.3312 13.1961 21.327C13.4582 20.2639 14.537 19.5764 15.6547 19.7816C15.7071 19.7838 19.8667 20.7521 20.08 20.8015C20.744 20.9472 21.4439 21.1287 21.6682 20.5433C21.8966 19.9474 21.4866 19.6991 20.9199 19.3426C20.6252 19.158 20.2576 18.9104 19.8337 18.4979C18.6271 17.325 18.2387 15.6631 18.2387 14.5981C18.2387 11.5437 20.8585 9.06689 23.9996 9.06689C27.1414 9.06689 29.7609 11.5437 29.7609 14.5981Z" fill="#660099"/>
</svg>
